<?xml version="1.0" encoding="utf-8"?>
<!-- Generator: Adobe Illustrator 25.2.3, SVG Export Plug-In . SVG Version: 6.00 Build 0)  -->
<svg version="1.1" id="Ebene_1" xmlns="http://www.w3.org/2000/svg" xmlns:xlink="http://www.w3.org/1999/xlink" x="0px" y="0px"
	 viewBox="0 0 329 71" style="enable-background:new 0 0 329 71;" xml:space="preserve">
<style type="text/css">
	.st0{clip-path:url(#SVGID_2_);}
	.st1{fill:#1A3691;}
	.st2{clip-path:url(#SVGID_4_);}
	.st3{clip-path:url(#SVGID_6_);}
	.st4{clip-path:url(#SVGID_8_);}
	.st5{clip-path:url(#SVGID_10_);}
	.st6{clip-path:url(#SVGID_12_);}
</style>
<g>
	<defs>
		<rect id="SVGID_1_" y="0.05" width="329" height="70.9"/>
	</defs>
	<clipPath id="SVGID_2_">
		<use xlink:href="#SVGID_1_"  style="overflow:visible;"/>
	</clipPath>
	<g id="Logo" class="st0">
		<g>
			<path class="st1" d="M114.3,40.4l-4-1c-0.6-0.1-1.7-0.4-1.7-1.6c0-1.4,1.4-1.8,2.7-1.8c2.9,0,3.2,1.7,3.2,2.4v0.1h3.5v-0.1
				c0-2.5-1.8-5.4-6.5-5.4c-5.9,0-6.4,3.9-6.4,5.1c0,3.7,2.7,4.3,5.3,4.9l1.8,0.4c1.8,0.4,2.9,0.7,2.9,1.9c0,1.3-1.1,2-3.3,2
				c-3,0-3.3-1.8-3.4-2.5v-0.1H105v0.1c0,1.7,0.7,5.6,7.1,5.6c1.1,0,6.6-0.3,6.6-5.5C118.7,41.9,116.6,41,114.3,40.4z"/>
			<rect x="121.1" y="33.4" class="st1" width="3.6" height="16.6"/>
			<path class="st1" d="M135.4,43.9h3.8c-0.8,3.2-3.3,3.4-3.8,3.4c-2.1,0-4.6-1-4.6-5.5c0-4.2,2.4-5.7,4.6-5.7c2.4,0,3.5,2,3.5,2.6
				v0.1h3.6v-0.1c-0.2-1.9-1.9-5.6-7.3-5.6c-5.9,0-8,4.7-8,8.7c0,6,3.8,8.7,7.6,8.7c2.8,0,4.1-1.3,5-2.4L140,50h2.5v-9h-7.1V43.9
				L135.4,43.9z"/>
			<polygon class="st1" points="155.8,44.6 149.3,33.4 145.6,33.4 145.6,50 149,50 149,38.5 155.6,50 159.2,50 159.2,33.4 
				155.8,33.4 			"/>
			<path class="st1" d="M166.8,33.4L160.9,50h3.8l1.1-3.4h5.9l1.1,3.4h3.9l-5.8-16.6H166.8z M170.7,43.5h-3.9l2-6.1L170.7,43.5z"/>
			<polygon class="st1" points="182.3,33.4 178.7,33.4 178.7,50 190.5,50 190.5,46.8 182.3,46.8 			"/>
			<rect x="198.4" y="33.4" class="st1" width="3.6" height="16.6"/>
			<path class="st1" d="M212.6,33.4h-7.3V50h7.2c5.1,0,6.9-4.5,6.9-8.7C219.4,39.4,218.9,33.4,212.6,33.4z M212,36.4
				c1.6,0,3.7,0.5,3.7,5.1c0,1.3-0.3,5.4-3.6,5.4h-3.2V36.4H212z"/>
			<path class="st1" d="M231.4,44.2c0,2.1-1,3-3.2,3c-1.8,0-2.8-1.2-2.8-3.2V33.4h-3.7v10.9c0.1,1.8,0.5,3.1,1.3,4
				c1.6,1.8,4,2,5.3,2c4.5,0,6.8-2.2,6.8-6.3V33.4h-3.7L231.4,44.2L231.4,44.2z"/>
			<polygon class="st1" points="248.2,44.6 241.8,33.4 238.1,33.4 238.1,50 241.5,50 241.5,38.5 248.1,50 251.6,50 251.6,33.4 
				248.2,33.4 			"/>
			<path class="st1" d="M263.3,33.4h-4.1L253.4,50h3.8l1.1-3.4h5.9l1.1,3.4h3.9L263.3,33.4z M263.2,43.5h-3.9l2-6.1L263.2,43.5z"/>
		</g>
		<path class="st1" d="M288.4,33.4h7.7c-4.6,12.7-6.4,17.5-7.1,19.3c-6.3-2.7-10.7-9.4-10.7-17.1c0-10,7.4-18.3,16.8-18.3
			c9.5,0,16.8,8.4,16.8,18.3c0,10-7.4,18.3-16.8,18.3c-1.3,0-2.5-0.2-3.7-0.5l7.3-20.1h5.2l-6,16.5c5.8-1.4,10.3-7.2,10.3-14.3
			c0-8.3-6.1-14.7-13.1-14.7c-7.1,0-13.1,6.4-13.1,14.7c0,3.2,0.9,6.2,2.5,8.5L288.4,33.4L288.4,33.4z"/>
	</g>
	<g class="st0">
		<path class="st1" d="M24.175,43.099c0,1.681-1.387,2.956-3.362,2.956h-2.815v3.95h-1.513v-9.805h4.328
			C22.788,40.199,24.175,41.46,24.175,43.099z M20.771,44.793c1.149,0,1.919-0.742,1.919-1.681c0-0.911-0.77-1.611-1.919-1.611
			h-2.773v3.292H20.771z"/>
		<path class="st1" d="M30.711,42.86h1.471v7.144h-1.471v-0.966c-0.616,0.756-1.457,1.121-2.353,1.121
			c-1.989,0-3.32-1.597-3.32-3.712c0-2.129,1.345-3.712,3.32-3.712c0.896,0,1.737,0.364,2.353,1.106V42.86z M30.711,47.777v-2.662
			c-0.532-0.729-1.247-1.121-1.975-1.121c-1.316,0-2.227,1.037-2.227,2.438c0,1.415,0.924,2.465,2.269,2.465
			C29.521,48.898,30.207,48.492,30.711,47.777z"/>
		<path class="st1" d="M35.833,44.345c0.462-0.868,1.219-1.625,2.858-1.625v1.541c-1.457,0-2.283,0.252-2.858,1.022v4.721h-1.499
			V42.86h1.499V44.345z"/>
		<path class="st1" d="M44.22,48.729v1.303c-0.448,0.098-0.771,0.112-1.163,0.112c-1.457,0-2.381-0.925-2.381-2.396v-3.712h-1.064
			V42.86h1.064v-1.905h1.485v1.905h1.905v1.177h-1.905v3.572c0,0.799,0.364,1.247,1.064,1.247
			C43.422,48.856,43.632,48.856,44.22,48.729z"/>
		<path class="st1" d="M52.047,45.256v4.749h-1.485v-4.497c0-1.008-0.63-1.442-1.387-1.442c-0.742,0-1.4,0.49-2.003,1.232v4.707
			h-1.471V42.86h1.471v1.233c0.574-0.798,1.303-1.373,2.367-1.373C50.899,42.721,52.047,43.575,52.047,45.256z"/>
		<path class="st1" d="M60.503,46.797h-5.351c0.154,1.373,1.037,2.157,2.423,2.157c0.785,0,1.611-0.378,2.199-0.966l0.574,1.205
			c-0.771,0.616-1.737,0.953-2.773,0.953c-2.381,0-3.88-1.457-3.88-3.754c0-2.213,1.457-3.67,3.53-3.67
			c2.003,0,3.278,1.429,3.278,3.516V46.797z M55.181,45.774h3.922c-0.14-1.163-0.756-1.947-1.863-1.947
			C56.105,43.827,55.362,44.542,55.181,45.774z"/>
		<path class="st1" d="M63.721,44.345c0.462-0.868,1.218-1.625,2.857-1.625v1.541c-1.457,0-2.283,0.252-2.857,1.022v4.721h-1.499
			V42.86h1.499V44.345z"/>
		<path class="st1" d="M76.309,42.86h1.653l-2.731,7.144h-1.807l-2.717-7.144h1.653l1.961,5.813L76.309,42.86z"/>
		<path class="st1" d="M78.644,46.404c0-2.115,1.625-3.684,3.782-3.684s3.796,1.568,3.796,3.684c0,2.144-1.639,3.74-3.796,3.74
			S78.644,48.548,78.644,46.404z M84.737,46.418c0-1.415-0.995-2.451-2.312-2.451c-1.316,0-2.311,1.037-2.311,2.451
			c0,1.443,0.995,2.479,2.311,2.479C83.743,48.898,84.737,47.861,84.737,46.418z"/>
		<path class="st1" d="M94.271,45.256v4.749h-1.485v-4.497c0-1.008-0.63-1.442-1.387-1.442c-0.742,0-1.4,0.49-2.003,1.232v4.707
			h-1.471V42.86h1.471v1.233c0.574-0.798,1.303-1.373,2.367-1.373C93.123,42.721,94.271,43.575,94.271,45.256z"/>
	</g>
</g>
</svg>
