<?xml version="1.0" encoding="utf-8"?>
<!-- Generator: Adobe Illustrator 25.2.3, SVG Export Plug-In . SVG Version: 6.00 Build 0)  -->
<svg version="1.1" id="Ebene_1" xmlns="http://www.w3.org/2000/svg" xmlns:xlink="http://www.w3.org/1999/xlink" x="0px" y="0px"
	 viewBox="0 0 241 71" style="enable-background:new 0 0 241 71;" xml:space="preserve">
<style type="text/css">
	.st0{clip-path:url(#SVGID_2_);}
	.st1{fill:#1A3691;}
	.st2{clip-path:url(#SVGID_4_);}
	.st3{clip-path:url(#SVGID_6_);}
	.st4{clip-path:url(#SVGID_8_);}
	.st5{clip-path:url(#SVGID_10_);}
	.st6{clip-path:url(#SVGID_12_);}
</style>
<g>
	<defs>
		<rect id="SVGID_7_" width="240.9" height="70.9"/>
	</defs>
	<clipPath id="SVGID_2_">
		<use xlink:href="#SVGID_7_"  style="overflow:visible;"/>
	</clipPath>
	<g id="Logo_1_" class="st0">
		<g>
			<path class="st1" d="M26.3,40.4l-4-1c-0.6-0.1-1.7-0.4-1.7-1.6c0-1.4,1.4-1.8,2.7-1.8c2.9,0,3.2,1.7,3.2,2.4v0.1H30v-0.1
				c0-2.5-1.8-5.4-6.5-5.4c-5.9,0-6.4,3.9-6.4,5.1c0,3.7,2.7,4.3,5.3,4.9l1.8,0.4c1.8,0.4,2.9,0.7,2.9,1.9c0,1.3-1.1,2-3.3,2
				c-3,0-3.3-1.8-3.4-2.5v-0.1H17v0.1c0,1.7,0.7,5.6,7.1,5.6c1.1,0,6.6-0.3,6.6-5.5C30.7,41.9,28.6,41,26.3,40.4z"/>
			<rect x="33.1" y="33.4" class="st1" width="3.6" height="16.6"/>
			<path class="st1" d="M47.4,43.9h3.8c-0.8,3.2-3.3,3.4-3.8,3.4c-2.1,0-4.6-1-4.6-5.5c0-4.2,2.4-5.7,4.6-5.7c2.4,0,3.5,2,3.5,2.6
				v0.1h3.6v-0.1c-0.2-1.9-1.9-5.6-7.3-5.6c-5.9,0-8,4.7-8,8.7c0,6,3.8,8.7,7.6,8.7c2.8,0,4.1-1.3,5-2.4L52,50h2.5v-9h-7.1V43.9
				L47.4,43.9z"/>
			<polygon class="st1" points="67.8,44.6 61.3,33.4 57.6,33.4 57.6,50 61,50 61,38.5 67.6,50 71.2,50 71.2,33.4 67.8,33.4 			"/>
			<path class="st1" d="M78.8,33.4L72.9,50h3.8l1.1-3.4h5.9l1.1,3.4h3.9l-5.8-16.6H78.8z M82.7,43.5h-3.9l2-6.1L82.7,43.5z"/>
			<polygon class="st1" points="94.3,33.4 90.7,33.4 90.7,50 102.5,50 102.5,46.8 94.3,46.8 			"/>
			<rect x="110.4" y="33.4" class="st1" width="3.6" height="16.6"/>
			<path class="st1" d="M124.6,33.4h-7.3V50h7.2c5.1,0,6.9-4.5,6.9-8.7C131.4,39.4,130.9,33.4,124.6,33.4z M124,36.4
				c1.6,0,3.7,0.5,3.7,5.1c0,1.3-0.3,5.4-3.6,5.4h-3.2V36.4H124z"/>
			<path class="st1" d="M143.4,44.2c0,2.1-1,3-3.2,3c-1.8,0-2.8-1.2-2.8-3.2V33.4h-3.7v10.9c0.1,1.8,0.5,3.1,1.3,4
				c1.6,1.8,4,2,5.3,2c4.5,0,6.8-2.2,6.8-6.3V33.4h-3.7L143.4,44.2L143.4,44.2z"/>
			<polygon class="st1" points="160.2,44.6 153.8,33.4 150.1,33.4 150.1,50 153.5,50 153.5,38.5 160.1,50 163.6,50 163.6,33.4 
				160.2,33.4 			"/>
			<path class="st1" d="M175.3,33.4h-4.1L165.4,50h3.8l1.1-3.4h5.9l1.1,3.4h3.9L175.3,33.4z M175.2,43.5h-3.9l2-6.1L175.2,43.5z"/>
		</g>
		<path class="st1" d="M200.4,33.4h7.7c-4.6,12.7-6.4,17.5-7.1,19.3c-6.3-2.7-10.7-9.4-10.7-17.1c0-10,7.4-18.3,16.8-18.3
			c9.5,0,16.8,8.4,16.8,18.3c0,10-7.4,18.3-16.8,18.3c-1.3,0-2.5-0.2-3.7-0.5l7.3-20.1h5.2l-6,16.5c5.8-1.4,10.3-7.2,10.3-14.3
			c0-8.3-6.1-14.7-13.1-14.7c-7.1,0-13.1,6.4-13.1,14.7c0,3.2,0.9,6.2,2.5,8.5L200.4,33.4L200.4,33.4z"/>
	</g>
	<g class="st0">
		<path class="st1" d="M25.92,15.672c0,1.681-1.387,2.956-3.362,2.956h-2.815v3.95h-1.513v-9.805h4.328
			C24.533,12.773,25.92,14.034,25.92,15.672z M22.516,17.367c1.149,0,1.919-0.742,1.919-1.681c0-0.911-0.77-1.611-1.919-1.611
			h-2.773v3.292H22.516z"/>
		<path class="st1" d="M32.456,15.434h1.471v7.144h-1.471v-0.966c-0.616,0.756-1.456,1.121-2.353,1.121
			c-1.989,0-3.32-1.597-3.32-3.712c0-2.129,1.345-3.712,3.32-3.712c0.896,0,1.736,0.364,2.353,1.106V15.434z M32.456,20.351v-2.662
			c-0.532-0.729-1.246-1.121-1.975-1.121c-1.316,0-2.228,1.037-2.228,2.438c0,1.415,0.925,2.465,2.27,2.465
			C31.266,21.472,31.952,21.065,32.456,20.351z"/>
		<path class="st1" d="M37.578,16.919c0.462-0.868,1.219-1.625,2.857-1.625v1.541c-1.457,0-2.283,0.252-2.857,1.022v4.721h-1.499
			v-7.144h1.499V16.919z"/>
		<path class="st1" d="M45.965,21.303v1.303c-0.448,0.098-0.771,0.112-1.162,0.112c-1.457,0-2.382-0.925-2.382-2.396v-3.712h-1.064
			v-1.177h1.064v-1.905h1.485v1.905h1.905v1.177h-1.905v3.572c0,0.799,0.364,1.247,1.064,1.247
			C45.167,21.43,45.377,21.43,45.965,21.303z"/>
		<path class="st1" d="M53.792,17.83v4.749h-1.484v-4.497c0-1.008-0.63-1.442-1.387-1.442c-0.742,0-1.4,0.49-2.003,1.232v4.707
			h-1.471v-7.144h1.471v1.233c0.574-0.798,1.303-1.373,2.367-1.373C52.644,15.294,53.792,16.148,53.792,17.83z"/>
		<path class="st1" d="M62.248,19.371h-5.351c0.154,1.373,1.036,2.157,2.423,2.157c0.785,0,1.611-0.378,2.199-0.966l0.574,1.205
			c-0.771,0.616-1.736,0.953-2.773,0.953c-2.381,0-3.88-1.457-3.88-3.754c0-2.213,1.457-3.67,3.53-3.67
			c2.003,0,3.277,1.429,3.277,3.516V19.371z M56.926,18.348h3.922c-0.141-1.163-0.757-1.947-1.863-1.947
			C57.85,16.401,57.107,17.115,56.926,18.348z"/>
		<path class="st1" d="M65.466,16.919c0.462-0.868,1.218-1.625,2.857-1.625v1.541c-1.457,0-2.283,0.252-2.857,1.022v4.721h-1.499
			v-7.144h1.499V16.919z"/>
		<path class="st1" d="M78.054,15.434h1.652l-2.731,7.144h-1.807l-2.718-7.144h1.653l1.961,5.813L78.054,15.434z"/>
		<path class="st1" d="M80.389,18.978c0-2.115,1.625-3.684,3.782-3.684s3.796,1.568,3.796,3.684c0,2.144-1.639,3.74-3.796,3.74
			S80.389,21.122,80.389,18.978z M86.482,18.992c0-1.415-0.995-2.451-2.312-2.451s-2.312,1.037-2.312,2.451
			c0,1.443,0.995,2.479,2.312,2.479S86.482,20.435,86.482,18.992z"/>
		<path class="st1" d="M96.016,17.83v4.749h-1.484v-4.497c0-1.008-0.63-1.442-1.387-1.442c-0.742,0-1.4,0.49-2.003,1.232v4.707
			h-1.471v-7.144h1.471v1.233c0.574-0.798,1.303-1.373,2.367-1.373C94.867,15.294,96.016,16.148,96.016,17.83z"/>
	</g>
</g>
</svg>
